<?xml version="1.0" encoding="utf-8"?>
<!DOCTYPE svg PUBLIC "-//W3C//DTD SVG 1.1//EN" "http://www.w3.org/Graphics/SVG/1.1/DTD/svg11.dtd">
<svg viewBox="0 0 800 800" preserveAspectRatio="xMinYMin meet" xmlns="http://www.w3.org/2000/svg" version="1.1">
<g fill="none" stroke="black" stroke-linecap="round" stroke-linejoin="round" stroke-width="1.4209">
<g transform="translate(87.52,132.9141) scale(2.1114) translate(-170,-102)">
<path id="0" d="M358 133 C358 133 355.9637 127.0155 357 123 C359.4808 113.3868 365.5843 102.099 366 102 C366.2432 101.9421 373.4811 109.7597 378 118 C381.5505 124.4745 382.177 132.2456 383 133 C383.1463 133.1341 386.7455 129.5424 390 129 C397.2165 127.7973 398.6311 128.6361 407 129 C409.9751 129.1294 411.9513 129.0823 413 130 C414.1059 130.9677 414.9819 136.0265 415 136 C415.1271 135.8142 425.9887 111.0216 426 111 C426.0015 110.9972 425.2858 113.9287 426 115 C429.9282 120.8924 434.4443 122.4357 438 129 C439.8284 132.3756 437.3431 136.4394 439 139 C441.0963 142.2397 445.7011 141.8764 449 146 C454.7181 153.1476 455.1735 154.8165 459 164 C462.4668 172.3204 462.7724 173.1612 464 182 C465.182 190.5105 466.1063 192.4523 464 200 C460.6827 211.8872 458.726 214.2384 452 225 C449.5165 228.9735 448.2806 229.4706 444 232 C437.8116 235.6568 437.0748 235.8776 430 238 C422.4327 240.2702 421.929 240.4198 414 241 C401.7786 241.8942 400.7692 242.5692 389 241 C379.2081 239.6944 377.9627 239.074 369 235 C362.26 231.9364 360.8433 230.8433 356 226 C353.3582 223.3582 354.2127 220.7659 352 218 C350.9727 216.7159 348.8022 217.2479 348 216 C345.33 211.8467 344.4202 210.0357 343 204 C340.5527 193.5991 340.2613 192.7151 340 182 C339.7756 172.8004 339.0101 170.9146 342 163 C346.7927 150.3136 357 137 357 137 "/>
<path id="1" d="M386 164 C386 164 380.1264 165.373 379 167 C377.3656 169.3608 376.4779 174.5636 377 177 C377.2766 178.2909 379.9966 180.4992 382 181 C384.2538 181.5635 388.2679 180.8948 389 180 C390.2664 178.4522 391.3731 172.4251 391 170 C390.8608 169.0954 387 167 387 167 "/>
<path id="2" d="M425 163 C425 163 416.7268 163.4061 415 165 C413.2172 166.6457 411.6048 173.7156 412 175 C412.2244 175.7293 417.4213 178.3383 419 178 C421.0577 177.5591 424.5051 174.5627 426 172 C426.8895 170.4751 426.3 166.6 426 166 C425.925 165.85 423 166 423 166 "/>
<path id="3" d="M408 190 C408 190 398.3896 189.3659 393 190 C392.1969 190.0945 391.0967 191.3232 391 192 C390.7945 193.4382 391.2867 196.5461 392 197 C393.9228 198.2236 398.1344 199.4295 402 199 C405.3384 198.6291 408.0464 196.9536 410 195 C410.9768 194.0232 411.1563 190.9379 411 190 C410.9569 189.7413 408.9968 189.0095 409 189 C409.0286 188.9143 410.4414 187.8659 412 187 C414.9067 185.3852 415.1531 184.5694 418 184 C421.8822 183.2236 427 184 427 184 "/>
<path id="4" d="M414 195 L429 193 "/>
<path id="5" d="M408 198 L420 205 "/>
<path id="6" d="M393 193 L381 186 "/>
<path id="7" d="M395 195 C395 195 390.5852 194.1852 387 195 C380.2167 196.5417 373 200 373 200 "/>
<path id="8" d="M394 197 L386 207 "/>
<path id="9" d="M399 199 C399 199 400.08 208.1401 399 213 C398.6229 214.6971 396.7485 216.1257 395 217 C393.8343 217.5828 391 217 391 217 "/>
<path id="10" d="M400 204 C400 204 400.4374 211.3123 402 216 C402.4934 217.4803 404.391 218.8985 405 219 C405.464 219.0773 408 217 408 217 "/>
<path id="11" d="M424 177 C424 177 421.1986 172.9161 419 172 C416.8273 171.0947 412 172 412 172 "/>
<path id="12" d="M392 177 C392 177 388.232 176.88 387 176 C385.9528 175.252 385.426 172.1217 385 172 C384.3997 171.8285 380 174 380 174 "/>
<path id="13" d="M349 216 C349 216 340.3509 211.2437 332 210 C317.9296 207.9044 315.6835 206.4835 302 209 C274.4062 214.0747 272.2745 216.082 245 226 C234.6396 229.7674 233.9304 230.7487 225 237 C219.5193 240.8365 217.7591 241.6271 215 247 C209.2355 258.2255 208.6289 260.8553 206 274 C204.3569 282.2155 204.1746 284.4702 206 292 C207.7178 299.0861 209.2012 300.9384 214 307 C217.9834 312.0316 219.1078 312.3174 225 316 C242.7651 327.1032 243.3349 328.6007 262 337 C272.3271 341.6472 273.7 341.9881 285 343 C306.1239 344.8917 307.3057 344.2222 329 343 C342.4235 342.2437 343.3565 342.7589 356 339 C379.4807 332.0192 380.7603 331.7364 403 321 C423.6009 311.0547 424.2707 309.9402 443 297 C451.167 291.3574 452.0314 290.5257 458 283 C462.9196 276.7971 463.9777 275.0781 466 268 C467.5209 262.6768 467.1512 260.9479 466 255 C464.3032 246.2331 463.7511 245.1273 460 237 C458.055 232.7858 456.8757 231.5882 454 229 C452.9325 228.0392 450 228 450 228 "/>
<path id="14" d="M208 273 C208 273 199.9475 274.5832 195 273 C189.4588 271.2268 186.8751 269.521 183 265 C179.1552 260.5143 178.7686 258.1902 177 252 C176.0384 248.6344 176.0131 246.9607 177 244 C178.0691 240.7926 179.0203 239.0629 182 237 C190.6598 231.0047 194.2854 232.2247 203 226 C207.0553 223.1034 208.5149 220.4652 210 217 C210.5658 215.6799 210.192 213.4725 209 212 C203.0596 204.6619 193.6655 201.5732 193 196 C191.1406 180.4274 200.9995 145.0206 201 145 C201.0001 144.9947 195.7892 151.4397 194 158 C190.1162 172.2406 190.5095 173.6031 189 189 C188.0413 198.7788 187.1269 202.6784 189 209 C189.8776 211.9618 194.9036 213.1174 197 216 C197.6542 216.8995 197.6001 219.4666 197 220 C192.1616 224.3008 186.5569 225.2827 179 232 C173.8156 236.6084 171.7176 238.8473 170 244 C168.6641 248.0076 168.8939 253.6411 171 256 C177.1142 262.8479 195 272 195 272 "/>
<path id="15" d="M225 317 C225 317 223.1236 345.4944 224 349 C224.0621 349.2484 229.4639 350.04 233 349 C236.721 347.9056 240.8967 344.878 241 344 C241.1964 342.331 235.9526 337.0011 235 332 C234.3753 328.7203 237 323 237 323 "/>
<path id="16" d="M250 332 C250 332 247.834 348.169 249 352 C249.3217 353.0571 253.124 354.354 257 355 C261.56 355.76 264.6438 355.7854 267 355 C267.7854 354.7382 268.4583 352.896 269 351 C269.3555 349.7558 269.5032 348.629 269 348 C266.7525 345.1907 261.662 342.7212 261 341 C260.6816 340.1723 264 335 264 335 "/>
<path id="17" d="M423 316 C423 316 421.562 331.832 422 333 C422.0428 333.1142 426.399 331.7399 429 332 C430.2063 332.1206 431.577 333.154 432 334 C432.4834 334.9668 432.5207 337.5314 432 338 C429.9027 339.8876 425.8812 342.6119 422 343 C418.4145 343.3585 412.3942 341.0347 412 340 C411.0022 337.3808 414 322 414 322 "/>
<path id="18" d="M383 328 C383 328 380.3278 346.7986 381 351 C381.0877 351.5483 384.8718 353.2838 387 353 C390.5387 352.5282 395.5551 349.6673 396 349 C396.1335 348.7998 393 345.9251 393 344 C393 337.4547 396 327 396 327 "/>
<path id="19" d="M424 314 L422 327 "/>
</g>
</g>
</svg>
