<?xml version="1.0" encoding="utf-8"?>
<!DOCTYPE svg PUBLIC "-//W3C//DTD SVG 1.1//EN" "http://www.w3.org/Graphics/SVG/1.1/DTD/svg11.dtd">
<svg viewBox="0 0 800 800" preserveAspectRatio="xMinYMin meet" xmlns="http://www.w3.org/2000/svg" version="1.1">
<g fill="none" stroke="black" stroke-linecap="round" stroke-linejoin="round" stroke-width="0.84485">
<g transform="translate(135.4573,87.52) scale(3.5509) translate(-212,-218)">
<path id="0" d="M241 256 C241 256 240.168 248.3309 242 245 C244.2999 240.8183 246.6307 239.0426 252 236 C260.7236 231.0566 262.3447 229.7963 272 228 C282.3345 226.0773 287.0337 224.8827 295 228 C305.4059 232.0719 309.3784 236.7625 318 246 C321.6409 249.901 322.837 252.9475 323 258 C323.2529 265.8401 322.3626 269.7574 319 277 C316.8753 281.5762 314.6746 282.7003 310 286 C306.9194 288.1745 305.8828 288.647 302 289 C285.0608 290.5399 282.5966 291.7782 266 290 C256.4054 288.972 253.5654 287.4832 246 283 C242.1361 280.7103 240.9186 278.4768 239 274 C236.9443 269.2035 237.2538 267.8374 237 262 C236.7699 256.7086 236.8349 255.0779 238 251 C238.3982 249.6063 241 248 241 248 "/>
<path id="1" d="M249 289 C249 289 245.1119 289.3574 243 291 C237.037 295.6379 235.7621 296.7497 231 303 C228.2865 306.5615 227.6135 307.7055 227 312 C225.7822 320.5249 225.5255 322.1529 227 331 C228.8755 342.2529 228.8046 345.0261 234 354 C238.5485 361.8565 241.1853 362.7482 249 369 C253.0521 372.2417 253.8862 372.2298 259 374 C266.5785 376.6233 267.1187 377.1243 275 378 C284.5853 379.065 285.7736 379.3568 295 378 C301.7977 377.0003 302.5956 376.2022 309 373 C315.2103 369.8948 316.1452 369.6236 321 365 C326.0551 360.1856 326.4964 359.1987 330 353 C332.7191 348.1893 333.2026 347.4491 334 342 C336.0851 327.752 338.3488 323.9787 336 312 C334.1474 302.5519 330.3755 300.7507 324 291 C322.1724 288.2048 321.4489 287.3358 319 286 C316.9256 284.8685 313 285 313 285 "/>
<path id="2" d="M234 299 C234 299 244.7808 299.5196 246 301 C247.708 303.074 248.7374 310.5923 248 316 C247.6154 318.8207 245.0856 322.2316 243 323 C239.1474 324.4194 234.7935 323.6816 229 323 C227.6612 322.8425 226.0286 321.0857 226 321 C225.9968 320.9905 228 320 228 320 "/>
<path id="3" d="M246 368 C246 368 244.6486 364.5811 245 363 C245.3432 361.4556 246.7743 359.3502 248 359 C251.2543 358.0702 255.2814 357.63 259 359 C262.5763 360.3176 265.3915 362.9841 267 366 C268.1421 368.1415 267.7222 372.1945 267 374 C266.675 374.8125 263 376 263 376 "/>
<path id="4" d="M311 373 C311 373 303.8986 370.685 303 369 C301.8042 366.7579 301.854 360.8651 303 358 C303.6668 356.333 306.2512 354.5787 309 354 C314.2227 352.9005 319.9381 353.2636 322 354 C322.4418 354.1578 323 359 323 359 "/>
<path id="5" d="M325 294 C325 294 317.8216 296.6319 316 299 C314.6602 300.7417 314.1217 305.118 315 307 C316.2513 309.6814 319.4275 312.529 323 314 C325.9545 315.2166 328.9144 314.7714 332 314 C333.2857 313.6786 335 311 335 311 "/>
<path id="6" d="M248 308 L238 309 "/>
<path id="7" d="M239 317 L245 323 "/>
<path id="8" d="M257 364 L255 358 "/>
<path id="9" d="M261 366 L268 365 "/>
<path id="10" d="M302 363 L308 364 "/>
<path id="11" d="M312 354 L315 363 "/>
<path id="12" d="M318 306 L324 301 "/>
<path id="13" d="M322 315 L330 309 "/>
<path id="14" d="M303 376 C303 376 305.6202 379.3001 308 380 C312.737 381.3932 315.4066 382.044 320 381 C324.4338 379.9923 325.8256 378.6051 330 375 C336.3865 369.4844 337.5574 368.7946 342 362 C345.4672 356.6972 346.1136 355.3522 347 349 C348.9503 335.0229 348.5672 333.7467 348 319 C347.5814 308.1151 345 302.6802 345 297 C345 296.4836 346.9508 295 348 295 C350.7978 295 355.2035 295.6521 356 297 C358.7178 301.5993 361.6903 308.3018 361 317 C359.4578 336.4318 357.2153 339.1789 351 360 C347.3527 372.2183 347.2537 377.3555 341 384 C335.2528 390.1064 329.4231 390.6377 319 394 C315.2813 395.1996 314.2576 394.6812 310 394 C302.1281 392.7405 300.4772 393.1091 294 390 C289.359 387.7723 286.7107 384.7798 285 382 C284.446 381.0997 286 377 286 377 "/>
<path id="15" d="M278 265 C278 265 272.0381 259.3052 272 259 C271.9922 258.9378 275.745 256.6862 277 257 C279.3008 257.5752 283.9282 261.7129 284 262 C284.0186 262.0744 279.2166 264.1338 279 265 C278.5669 266.7325 281.579 272.4947 281 274 C280.5292 275.224 276.259 278.113 274 278 C269.5983 277.7799 262.6866 274.2649 261 273 C260.7986 272.849 262 269 262 269 "/>
<path id="16" d="M281 274 C281 274 282.7372 278.2107 284 279 C285.0309 279.6443 287.3014 279.7927 289 279 C293.5069 276.8968 298.0433 273.1958 299 272 C299.0893 271.8884 297 269 297 269 "/>
<path id="17" d="M267 262 L212 257 "/>
<path id="18" d="M265 266 L217 266 "/>
<path id="19" d="M262 267 C262 267 251.0368 272.8466 240 276 C230.6316 278.6767 220 279 220 279 "/>
<path id="20" d="M289 258 C289 258 297.5689 260.4618 306 261 C320.7127 261.9391 321.601 262.0536 336 261 C341.385 260.606 347 258 347 258 "/>
<path id="21" d="M294 262 C294 262 308.6177 262.3235 322 265 C330.516 266.7032 339 271 339 271 "/>
<path id="22" d="M297 268 C297 268 302.9296 266.6432 307 268 C317.8543 271.6181 318.6178 275.3008 330 279 C337.5596 281.4569 347 281 347 281 "/>
<path id="23" d="M265 240 C265 240 256.5707 238.6196 256 239 C255.6804 239.2131 255.6777 245.7583 256 246 C256.445 246.3338 262.26 246.044 264 245 C265.0116 244.393 266 240 266 240 "/>
<path id="24" d="M288 237 C288 237 298.1799 234.7763 299 235 C299.107 235.0292 299.5988 238.4032 299 240 C298.506 241.3174 296.3219 243.1073 296 243 C293.6394 242.2131 284 235 284 235 "/>
<path id="25" d="M263 229 C263 229 252.7184 217.9244 252 218 C251.3162 218.072 246.0988 224.9659 244 231 C242.6702 234.8232 244 241 244 241 "/>
<path id="26" d="M296 228 C296 228 300.4926 226.6958 302 225 C303.4069 223.4173 302.8808 220.1192 304 219 C304.8394 218.1606 308.5287 217.5716 309 218 C310.8431 219.6756 314.431 224.6379 315 229 C315.5606 233.2977 312 241 312 241 "/>
</g>
</g>
</svg>
